<svg xmlns="http://www.w3.org/2000/svg" viewBox="0 0 280 64" fill="none">
  <defs>
    <linearGradient id="tealGrad" x1="0" y1="0" x2="1" y2="1">
      <stop offset="0%" stop-color="#0891B2"/>
      <stop offset="100%" stop-color="#0D9488"/>
    </linearGradient>
  </defs>
  <!-- Tooth icon -->
  <path d="M24 6C18 6 14.5 9.5 13 13c-2 4.2-1 9.5 0.8 13.8 1.3 3.2 3 7.2 4.2 11.8 1 3.8 2.4 6.8 3.8 6.8.8-.4 1.6-3 2-5 .3-1.7.5-3 .8-3s.5 1.3.8 3c.4 2 1.2 4.6 2 5 1.4 0 2.8-3 3.8-6.8 1.2-4.6 2.9-8.6 4.2-11.8C37.2 22.5 38.2 17.2 36.2 13 34.7 9.5 31.2 6 24 6z" fill="url(#tealGrad)"/>
  <path d="M18.5 14.5c1.2-2 3.2-3.8 6.5-3.8" stroke="white" stroke-opacity="0.35" stroke-width="1.2" stroke-linecap="round" fill="none"/>
  <!-- "Dr. Weber" text -->
  <text x="56" y="28" font-family="system-ui, -apple-system, 'Segoe UI', sans-serif" font-size="15" font-weight="300" fill="#64748B" letter-spacing="0.5">Dr.</text>
  <text x="56" y="48" font-family="system-ui, -apple-system, 'Segoe UI', sans-serif" font-size="22" font-weight="700" fill="#0F172A" letter-spacing="-0.5">Weber</text>
  <!-- Tagline divider + text -->
  <line x1="125" y1="18" x2="125" y2="50" stroke="#E2E8F0" stroke-width="1"/>
  <text x="137" y="30" font-family="system-ui, -apple-system, 'Segoe UI', sans-serif" font-size="10" font-weight="400" fill="#94A3B8" letter-spacing="0.3">ZAHNARZT</text>
  <text x="137" y="46" font-family="system-ui, -apple-system, 'Segoe UI', sans-serif" font-size="10" font-weight="400" fill="#94A3B8" letter-spacing="0.3">PRAXIS</text>
</svg>
