<svg xmlns="http://www.w3.org/2000/svg" viewBox="0 0 64 64" fill="none">
  <defs>
    <linearGradient id="tealGrad" x1="0" y1="0" x2="1" y2="1">
      <stop offset="0%" stop-color="#0891B2"/>
      <stop offset="100%" stop-color="#0D9488"/>
    </linearGradient>
  </defs>
  <!-- Tooth shape — modern geometric -->
  <path d="M32 6C24.5 6 20 10 18 14c-2.5 5-1 11 1 16 1.5 3.8 3.5 8.5 5 14 1.2 4.5 2.8 8 4.5 8h0c1-.5 2-3.5 2.5-6 .4-2 .6-3.5 1-3.5s.6 1.5 1 3.5c.5 2.5 1.5 5.5 2.5 6h0c1.7 0 3.3-3.5 4.5-8 1.5-5.5 3.5-10.2 5-14 2-5 3.5-11 1-16C44 10 39.5 6 32 6z" fill="url(#tealGrad)"/>
  <!-- Highlight line — left crown -->
  <path d="M24 16c1.5-2.5 4-4.5 8-4.5" stroke="white" stroke-opacity="0.4" stroke-width="1.5" stroke-linecap="round" fill="none"/>
</svg>
